<?xml version="1.0" encoding="utf-8"?>
<!-- Generator: Adobe Illustrator 24.1.1, SVG Export Plug-In . SVG Version: 6.00 Build 0)  -->
<svg version="1.1" xmlns="http://www.w3.org/2000/svg" xmlns:xlink="http://www.w3.org/1999/xlink" x="0px" y="0px"
	 viewBox="0 0 258 40" style="enable-background:new 0 0 258 40;" xml:space="preserve">
<style type="text/css">
	.st0{fill:#FFF89F;}
	.st1{display:none;}
	.st2{display:inline;}
	.st3{fill:#3273DB;}
	.st4{fill:#3373DB;}
	.st5{fill:#FCFDFE;}
	.st6{fill:#F9FBFD;}
	.st7{fill:#F8FAFD;}
	.st8{fill:#F7F9FD;}
</style>
<g id="Layer_1">
	<g>
		<rect class="st0" width="258" height="40"/>
	</g>
</g>
<g id="Layer_2" class="st1">
	<g class="st2">
		<g>
			<path class="st3" d="M33.69,32.76c-2.98,0-5.73,0-9.14,0c0-5.59,0-10.98,0-16.43c-6.09,0-11.51,0-17.38,0c0,5.52,0,10.79,0,16.35
				c-3.18,0-5.92,0-9.03,0c0-13.71,0-27.41,0-41.4c2.82,0,5.57,0,8.74,0c0,5.33,0,10.6,0,16.29c5.95,0,11.51,0,17.66,0
				c0-5.26,0-10.66,0-16.31c3.34,0,6.09,0,9.15,0C33.69,4.98,33.69,18.57,33.69,32.76z"/>
			<path class="st4" d="M147.57-10.73c2.91,0,5.68,0,9.03,0c0,5.36,0,10.75,0,16.59c2.48-1.32,4.25-2.52,6.2-3.24
				c5.52-2.02,11.6,0.26,13.84,5.65c2.81,6.77,2.75,13.69-1.18,20.14c-2.46,4.04-6.65,6.79-10.91,5.32
				c-5.67-1.96-11.16-0.06-16.98-0.96C147.57,18.32,147.57,3.93,147.57-10.73z M169,19.05c0-1.97,0.03-2.47,0-2.96
				c-0.32-4.61-2.99-7.41-6.65-7c-4.3,0.47-6.73,5.28-5.83,11.52c0.62,4.28,3.49,7.14,6.78,6.18c1.71-0.5,3.47-1.98,4.46-3.5
				C168.77,21.73,168.86,19.57,169,19.05z"/>
			<path class="st4" d="M83.77,6.61c2.18-1.61,3.15-2.47,4.25-3.12c6.51-3.84,14.26-0.67,15.06,6.84
				c0.76,7.21,0.16,14.56,0.16,22.26c-2.44,0-5.15,0-8.64,0c0-3.29,0-6.71,0-10.13c0-2,0.16-4.01-0.07-5.99
				c-0.36-3.23-0.16-7.41-4.87-7.3c-4.77,0.11-5.61,3.86-5.58,7.86c0.04,5.13,0.01,10.25,0.01,15.67c-3.14,0-5.87,0-8.9,0
				c0-14.37,0-28.62,0-43.29c2.6,0,5.33,0,8.57,0C83.77-5.45,83.77-0.05,83.77,6.61z"/>
			<path class="st4" d="M140.1,32.82c-3.26,0-5.86,0-9.11,0c0-5.77,0.28-11.39-0.14-16.96c-0.17-2.19-1.39-5-3.08-6.22
				c-3.04-2.19-7.02,1.08-7.25,6c-0.26,5.6-0.06,11.22-0.06,17.1c-3.31,0-6.05,0-9.08,0c0-9.78,0-19.37,0-28.95
				c5.91-1.59,7.76-1.23,9.73,2.07c1.19-0.81,2.32-1.7,3.57-2.39c7.18-3.98,14.42-0.23,15.3,7.92c0.12,1.15,0.11,2.33,0.12,3.49
				C140.11,20.68,140.1,26.49,140.1,32.82z"/>
			<path class="st4" d="M243.56,20.66c-5.99,0-12.08,0-18.21,0c0.7,6.88,5,8.14,15.94,5.11c1.59,4.63-0.03,6.77-4.85,7.79
				c-12.59,2.67-21.04-3.45-20.84-15.54c0.17-10.25,7.18-16.93,16.76-15.99C240.84,2.87,245.17,9.83,243.56,20.66z M235.57,14.76
				c-0.08-3.9-1.42-6.66-5.01-6.53c-3.5,0.13-5.35,2.66-5.56,6.53C228.58,14.76,231.95,14.76,235.57,14.76z"/>
			<path class="st4" d="M211.31,20.71c-6.36,0-12.45,0-18.6,0c1.02,6.83,5.11,8.03,15.93,5.12c1.7,4.74-0.19,6.91-4.96,7.83
				c-7.76,1.49-14.91-0.6-18.34-5.86c-3.56-5.46-3.09-15.01,1.02-20.29c3.94-5.07,11.49-6.97,17.58-4.43
				C209.71,5.49,212.38,11.52,211.31,20.71z M192.15,14.69c3.98,0,7.34,0,10.7,0c0.34-0.43,0.68-0.87,1.02-1.3
				c-1.73-1.75-3.25-4.64-5.22-4.99C194.8,7.71,193.1,10.83,192.15,14.69z"/>
			<path class="st4" d="M44.2,9.95c-1.64-4.22-0.37-6.61,4.27-7.07c2.3-0.23,4.59-0.84,6.88-0.84C63,2.06,67.23,5.8,67.66,13.42
				c0.36,6.27,0.07,12.57,0.07,19.33c-3.45-0.43-7.15,2.45-9.39-2.4c-1.08,0.77-2.09,2.12-3.19,2.19c-3.61,0.22-7.61,0.9-10.8-0.32
				c-3.81-1.45-4.02-5.7-3.54-9.53c0.53-4.21,3.34-6.48,7.06-7.46c3.48-0.92,7.13-1.21,10.69-1.78C57.84,7.63,57.07,7.45,44.2,9.95z
				 M58.59,19.45c-6.02-0.63-9.93,1.02-9.27,4.22c0.29,1.42,2.66,3.24,4.24,3.4C57.34,27.43,59.01,24.54,58.59,19.45z"/>
			<path class="st5" d="M169,19.05c-0.14,0.52-0.23,2.68-1.25,4.25c-0.99,1.52-2.75,3-4.46,3.5c-3.3,0.96-6.16-1.91-6.78-6.18
				c-0.9-6.25,1.52-11.05,5.83-11.52c3.67-0.4,6.34,2.4,6.65,7C169.03,16.58,169,17.08,169,19.05z"/>
			<path class="st6" d="M235.57,14.76c-3.62,0-6.99,0-10.57,0c0.21-3.87,2.06-6.41,5.56-6.53C234.15,8.1,235.49,10.86,235.57,14.76z
				"/>
			<path class="st7" d="M192.15,14.69c0.95-3.86,2.65-6.98,6.5-6.29c1.98,0.35,3.5,3.25,5.22,4.99c-0.34,0.43-0.68,0.87-1.02,1.3
				C199.49,14.69,196.13,14.69,192.15,14.69z"/>
			<path class="st8" d="M58.59,19.45c0.43,5.09-1.25,7.98-5.04,7.61c-1.57-0.15-3.95-1.98-4.24-3.4
				C48.66,20.48,52.57,18.83,58.59,19.45z"/>
		</g>
	</g>
</g>
</svg>
